<svg width="24" height="24" viewBox="0 0 24 24" fill="none" xmlns="http://www.w3.org/2000/svg">
    <path fill-rule="evenodd" clip-rule="evenodd" d="M6 22C4.34315 22 3 20.7653 3 19.2423V10.05C3 10.0188 3.00169 9.98805 3.00498 9.95768H3C3 9.42824 3.2288 8.92048 3.63607 8.5461L9.87868 2.80771C11.0502 1.73076 12.9497 1.73076 14.1213 2.80771L20.3639 8.54612C20.7712 8.92049 21 9.42824 21 9.95768H20.995C20.9983 9.98805 21 10.0188 21 10.05V19.2423C21 20.7653 19.6569 22 18 22H6ZM12.7071 4.1077L19 9.89232V19.2423C19 19.75 18.5523 20.1615 18 20.1615H15V15.5654C15 14.0424 13.6569 12.8077 12 12.8077C10.3431 12.8077 9 14.0424 9 15.5654V20.1615H6C5.44772 20.1615 5 19.75 5 19.2423V9.89239L11.2929 4.1077C11.6834 3.74872 12.3166 3.74872 12.7071 4.1077Z" fill="#4D4D4D" stroke="#FCFCFC" stroke-width="0.4"/>
</svg>
